<?xml version="1.0" encoding="utf-8"?>
<!-- Generator: Adobe Illustrator 27.0.0, SVG Export Plug-In . SVG Version: 6.00 Build 0)  -->
<svg version="1.1" id="Layer_1" xmlns="http://www.w3.org/2000/svg" xmlns:xlink="http://www.w3.org/1999/xlink" x="0px" y="0px"
	 viewBox="0 0 53.4 48" style="enable-background:new 0 0 53.4 48;" xml:space="preserve">
<style type="text/css">
	.st0{fill:#FA4A6F;}
	.st1{fill:#532B79;}
</style>
<path class="st0" d="M43.5,47.8c-2,0-3.9-0.6-5.5-1.8c-1.6-1.2-2.8-2.9-3.4-4.9c-0.2-0.5-0.4-0.8-1-0.8c-2.4,0-4.7,0-6.9,0
	c-2.4,0-4.8,0-7.1,0c-0.7,0-0.9,0.4-1,0.8c-1.2,3.9-4.8,6.5-8.8,6.5c-0.2,0-0.5,0-0.8,0c-1.9-0.1-3.7-0.9-5.2-2.2
	c-1.5-1.3-2.6-3-3-5c-0.6-2.4-0.1-5.1,1.4-7.2c1.4-2.1,3.7-3.6,6.1-3.9c0.5-0.1,1-0.1,1.5-0.1c0.7,0,1.5,0.1,2.2,0.3
	c0.1,0,0.2,0,0.3,0c0.4,0,0.5-0.2,0.6-0.4c1.8-3.1,3.6-6.3,5.4-9.3l1.8-3c0-0.1,0.1-0.1,0.1-0.2c0,0,0,0,0,0l0.1-0.2L20,16
	c-1.8-1.9-2.8-4.3-2.7-6.9c0.1-2.5,1.2-4.9,3-6.6C22,1,24.2,0.2,26.6,0.2c2.4,0,4.6,0.9,6.3,2.4c1.8,1.7,2.9,4.1,3,6.6
	c0.1,2.5-0.9,5-2.7,6.9l-0.2,0.2l7.6,13.1l0.2,0c0.4,0,0.7-0.1,1.1-0.1c0.7-0.1,1.3-0.1,1.9-0.1c0.1,0,0.2,0,0.2,0
	c2.1,0.1,4.1,0.9,5.7,2.3c1.6,1.4,2.7,3.4,3,5.4c0.4,2.3-0.1,4.7-1.4,6.7c-1.2,1.9-3.2,3.3-5.4,4C45.2,47.7,44.3,47.8,43.5,47.8z
	 M43.4,33.2c-2.9,0-5.1,2.3-5.1,5.2c0,2.8,2.3,5.1,5.1,5.1h0c1.4,0,2.6-0.5,3.6-1.5c1-1,1.5-2.3,1.5-3.7
	C48.5,35.5,46.2,33.2,43.4,33.2L43.4,33.2z M9.8,33.2c-2.8,0-5.1,2.3-5.1,5.2c0,2.8,2.3,5.1,5.1,5.1h0c2.8,0,5.1-2.3,5.1-5.2
	C14.9,35.5,12.6,33.2,9.8,33.2L9.8,33.2z M24.2,18.4c-0.4,0-0.6,0.3-0.7,0.5c-1.1,2-2.3,4-3.4,5.9l-3.9,6.7l0.2,0.2
	c1.2,1.2,1.9,2.5,2.3,4c0.1,0.3,0.5,0.5,0.8,0.5c2.4,0,4.7,0,7,0c0,0,0,0,0,0c2.5,0,5,0,7.4,0c0.3,0,0.7-0.3,0.8-0.6
	c0.4-1.4,1.1-2.6,2.1-3.7c0.4-0.4,0.3-0.8,0.1-1c-2.4-4-4.7-8.1-7-12.1c-0.1-0.1-0.3-0.5-0.7-0.5c-0.1,0-0.2,0-0.3,0
	c-0.7,0.2-1.4,0.3-2.1,0.3c-0.7,0-1.4-0.1-2-0.3C24.4,18.4,24.3,18.4,24.2,18.4z M26.6,4.3c-1.4,0-2.7,0.6-3.6,1.5
	c-1,1-1.5,2.3-1.5,3.7c0,2.8,2.3,5.1,5.1,5.1h0c2.8,0,5.1-2.3,5.1-5.2C31.7,6.6,29.4,4.3,26.6,4.3L26.6,4.3z"/>
<g>
	<circle class="st1" cx="9.7" cy="38.7" r="5.7"/>
	<circle class="st1" cx="26.6" cy="9.3" r="5.7"/>
	<circle class="st1" cx="43.7" cy="38.7" r="5.7"/>
</g>
</svg>
