<?xml version="1.0" encoding="utf-8"?>
<!-- Generator: Adobe Illustrator 27.0.0, SVG Export Plug-In . SVG Version: 6.00 Build 0)  -->
<svg version="1.1" id="Layer_1" xmlns="http://www.w3.org/2000/svg" xmlns:xlink="http://www.w3.org/1999/xlink" x="0px" y="0px"
	 viewBox="0 0 53.4 48" style="enable-background:new 0 0 53.4 48;" xml:space="preserve">
<style type="text/css">
	.st0{fill:#532B79;}
	.st1{fill:#FA4A6F;}
</style>
<path class="st0" d="M33.3,29.6c-1.6,0-3.2,0-4.9,0c-1.8,0-2.6-1.2-3-2.3c-0.5-1.4-0.2-2.6,0.8-3.7c0,0,0.1-0.1,0.2-0.2l0.3-0.3
	l-0.1-0.2c-0.9-1.4-1.6-3-2-4.7c-1-3.9-0.2-8.1,2-11.5C28.6,3.3,32,1,35.9,0.2C36.9,0.1,37.8,0,38.7,0c6.8,0,12.5,4.5,14.2,11.1
	c0.7,2.8,0.6,5.7-0.3,8.5c-0.3,0.9-0.9,1.4-1.7,1.4c-0.2,0-0.4,0-0.6-0.1c-0.9-0.3-1.3-1.3-1-2.4c1.3-3.9,0.8-7.4-1.6-10.5
	c-2.3-3.1-5.3-4.6-8.8-4.6c-0.8,0-1.7,0.1-2.6,0.3c-4.6,1-7.7,4-8.7,8.7c-0.8,3.6,0,6.9,2.4,9.8c0.7,0.8,0.6,1.8-0.2,2.5
	c-0.2,0.2-0.4,0.4-0.7,0.6c-0.1,0.1-0.2,0.2-0.4,0.3l-0.5,0.4l0.6,0.1c0.1,0,0.1,0,0.1,0c0.1,0,0.1,0,0.2,0h1.9c2.5,0,5.1,0,7.6,0
	c1.5,0,3-0.3,4.4-1c0.3-0.1,0.6-0.2,0.8-0.2c0.3,0,0.7,0.1,1,0.3c0.5,0.4,0.7,0.9,0.7,1.5c-0.1,0.6-0.4,1.1-1,1.4
	c-1.7,0.8-3.3,1.3-4.8,1.3C37.9,29.6,35.7,29.6,33.3,29.6z"/>
<path class="st1" d="M2.5,48c-0.8,0-1.4-0.2-1.8-0.7C0.2,46.8,0,46.2,0,45.4c0.1-4.7,1.9-8.2,5.7-10.9c0.1,0,0.1-0.1,0.2-0.2L6,34.3
	L6.3,34l-0.3-0.3c-2-2-3.1-4.7-3.1-7.4c0-2.7,1.2-5.3,3.2-7.2c1.8-1.7,4.2-2.6,6.8-2.6c2.6,0,5.1,1,6.9,2.8c1.9,1.9,3,4.4,3,7.1
	c0,2.7-1.1,5.3-3.1,7.3L19.6,34l0.3,0.3c0.2,0.1,0.3,0.3,0.5,0.4c0.3,0.3,0.7,0.6,1,0.8c3.1,2.7,4.5,6.2,4.4,10.5c0,1.1-1,2-2.1,2
	c-0.4,0-0.7,0-1.2,0c-0.3,0-0.6,0-0.9,0c-0.3,0-0.6,0-0.9,0h0c-1.7,0-3.3,0-5,0s-3.3,0-5,0C7.5,48,4.9,48,2.5,48L2.5,48z M12.9,36.5
	c-0.1,0-0.3,0-0.4,0c-1.8,0.1-3.8,0.9-5.4,2.3c-1.6,1.4-2.6,3.1-2.6,4.6v0.4h17l0-0.4c-0.2-1.6-1.1-3.2-2.5-4.5
	C17.7,37.7,15.8,36.5,12.9,36.5z M12.9,20.7c-3.2,0-5.8,2.6-5.8,5.8c0,3.2,2.6,5.8,5.8,5.8c3.2,0,5.8-2.6,5.8-5.8
	c0-1.6-0.6-3-1.7-4.1C15.9,21.3,14.5,20.7,12.9,20.7z"/>
<path class="st0" d="M38.7,16.5c-1.4,0-2.9,0-4.3,0c-1,0-1.7-0.6-1.8-1.6c-0.1-0.8,0.5-1.6,1.3-1.8c0.2,0,0.4,0,0.6-0.1
	c0.7,0,1.4,0,2.2,0h2.2c0.4,0,2.1,0,2.6,0c0.6,0,1.1,0,1.7,0c0.5,0,1,0.2,1.4,0.5c0.3,0.3,0.5,0.7,0.5,1.2c0,1-0.8,1.7-1.8,1.7
	C41.6,16.5,40.1,16.5,38.7,16.5z"/>
</svg>
