<?xml version="1.0" encoding="utf-8"?>
<!-- Generator: Adobe Illustrator 27.0.0, SVG Export Plug-In . SVG Version: 6.00 Build 0)  -->
<svg version="1.1" id="Layer_1" xmlns="http://www.w3.org/2000/svg" xmlns:xlink="http://www.w3.org/1999/xlink" x="0px" y="0px"
	 viewBox="0 0 39 48" style="enable-background:new 0 0 39 48;" xml:space="preserve">
<style type="text/css">
	.st0{fill:#FA4A6F;}
	.st1{fill:#532B79;}
</style>
<path class="st0" d="M0,23.6c0-4.9,0-9.8,0-14.7c0-4.3,2.8-7.8,7.1-8.7C7.6,0.1,8.1,0,8.7,0c7,0,14,0,21.1,0c4.3,0,8,3.3,8.6,7.6
	c0.1,0.4,0.1,0.9,0.1,1.3c0,4.7,0,9.4,0,14.1c0,1.5-1.4,2.3-2.6,1.6c-0.6-0.4-0.9-0.9-0.9-1.6c0-4.7,0-9.4,0-14.1
	c0-2.4-1.5-4.5-3.9-5.1c-0.5-0.1-1-0.2-1.5-0.2c-6.9,0-13.8,0-20.7,0c-3,0-5.3,2.3-5.3,5.4c0,9.8,0,19.7,0,29.5c0,3,2.3,5.3,5.3,5.3
	c2.6,0,5.1,0,7.7,0c0.9,0,1.6,0.7,1.7,1.5c0.1,0.9-0.4,1.7-1.3,2c-0.2,0-0.4,0.1-0.6,0.1c-2.5,0-5.1,0-7.6,0c-4.8,0-8.7-3.9-8.7-8.7
	C0,33.5,0,28.6,0,23.6z"/>
<path class="st0" d="M16.3,15.2c-2.9,0-5.8,0-8.7,0c-0.9,0-1.7-0.7-1.8-1.6c-0.1-0.9,0.4-1.7,1.3-1.9c0.2-0.1,0.4-0.1,0.6-0.1
	c5.7,0,11.4,0,17.1,0c1.1,0,1.9,0.7,1.9,1.8c0,1-0.8,1.7-1.9,1.7C22,15.2,19.2,15.2,16.3,15.2z"/>
<path class="st0" d="M13.7,9.2c-2,0-4,0-5.9,0c-1.1,0-1.9-0.7-1.9-1.7c0-1,0.8-1.8,1.9-1.8c4,0,7.9,0,11.9,0c1.1,0,1.9,0.7,1.9,1.7
	c0,1-0.8,1.8-1.9,1.8C17.6,9.2,15.7,9.2,13.7,9.2z"/>
<path class="st0" d="M12.7,21.3c-1.6,0-3.3,0-5,0c-1.1,0-1.9-0.7-1.9-1.8c0-1,0.8-1.7,1.8-1.7c3.3,0,6.7,0,10,0
	c1.1,0,1.8,0.7,1.9,1.7c0,1-0.8,1.8-1.9,1.8C16,21.3,14.3,21.3,12.7,21.3z"/>
<path class="st0" d="M10.6,24c1,0,1.9,0,2.9,0c1.1,0,1.8,0.7,1.8,1.7c0,1-0.8,1.7-1.8,1.7c-2,0-3.9,0-5.9,0c-1,0-1.8-0.8-1.8-1.8
	c0-1,0.8-1.7,1.8-1.7C8.6,24,9.6,24,10.6,24z"/>
<g>
	<path class="st1" d="M14.6,35.7c0-6.7,5.5-12.2,12.3-12.2c6.7,0,12.2,5.5,12.2,12.3C39,42.5,33.5,48,26.7,48
		C20,48,14.6,42.5,14.6,35.7z M35.5,35.7c0-4.8-3.9-8.7-8.8-8.7C22,27,18,31,18,35.8c0,4.8,3.9,8.7,8.7,8.7
		C31.6,44.5,35.5,40.6,35.5,35.7z"/>
	<path class="st1" d="M25.6,35.7c1.1-1.2,2.2-2.2,3.3-3.3c0.8-0.8,1.9-0.9,2.6-0.1c0.7,0.7,0.7,1.8-0.2,2.6
		c-1.5,1.5-2.9,2.9-4.4,4.4c-0.9,0.9-1.9,0.9-2.8,0c-0.7-0.7-1.4-1.4-2.1-2.1c-0.8-0.8-0.8-1.8-0.1-2.5c0.7-0.7,1.8-0.7,2.5,0.1
		C24.9,34.9,25.2,35.3,25.6,35.7z"/>
</g>
</svg>
